<?xml version="1.0" encoding="utf-8"?>
<!-- Generator: Adobe Illustrator 21.0.0, SVG Export Plug-In . SVG Version: 6.00 Build 0)  -->
<svg version="1.1" id="Layer_1" xmlns="http://www.w3.org/2000/svg" xmlns:xlink="http://www.w3.org/1999/xlink" x="0px" y="0px"
	 viewBox="0 0 800 800" style="enable-background:new 0 0 800 800;" xml:space="preserve">
<style xmlns="http://www.w3.org/2000/svg" type="text/css">
	.st0{fill:none;stroke: #06a3da;stroke-width:50;stroke-linecap:round;stroke-linejoin:round;}
	.st1{fill:none;stroke: #71cbea;stroke-width:22;stroke-linecap:round;stroke-linejoin:round;}
	.st2{fill: #b3aeae;}
	.st3{opacity:0.5;fill: #747474;enable-background:new;}
</style>
<path class="st0" d="M580,760h90c49.7,0,90-40.3,90-90v-90"/>
<path class="st0" d="M220,40h-90c-49.7,0-90,40.3-90,90v90"/>
<path class="st1" d="M220,760h-90c-49.7,0-90-40.3-90-90v-90"/>
<path class="st1" d="M580,40h90c49.7,0,90,40.3,90,90v90"/>
<circle class="st2" cx="403.3" cy="238.3" r="107.3"/>
<path class="st3" d="M618,546.9c0,66.7,0,120.8-214.7,120.8s-214.7-54.1-214.7-120.8s96.1-120.8,214.7-120.8
	C521.9,426.2,618,480.2,618,546.9z"/>
</svg>
