<!DOCTYPE svg PUBLIC "-//W3C//DTD SVG 1.1//EN" "http://www.w3.org/Graphics/SVG/1.1/DTD/svg11.dtd">
<!-- Uploaded to: SVG Repo, www.svgrepo.com, Transformed by: SVG Repo Mixer Tools -->
<svg fill="#000000" height="100px" width="100px" version="1.1" id="Layer_1" xmlns="http://www.w3.org/2000/svg" xmlns:xlink="http://www.w3.org/1999/xlink" viewBox="0 0 512 512" xml:space="preserve">
<g id="SVGRepo_bgCarrier" stroke-width="0"/>
<g id="SVGRepo_tracerCarrier" stroke-linecap="round" stroke-linejoin="round"/>
<g id="SVGRepo_iconCarrier"> <g> <g> <path d="M460.207,157.201L309.618,6.615C305.382,2.379,299.637,0,293.647,0H97.882C85.408,0,75.294,10.114,75.294,22.588v8.843 c-2.358-0.836-4.885-1.313-7.529-1.313c-12.475,0-22.588,10.113-22.588,22.588v436.706C45.176,501.886,55.29,512,67.765,512 h346.353c12.475,0,22.588-10.114,22.588-22.588c0-2.644-0.477-5.171-1.313-7.529h8.843c12.475,0,22.588-10.114,22.588-22.588 V173.173C466.824,167.183,464.443,161.438,460.207,157.201z M316.235,77.119l73.466,73.466h-73.466V77.119z M421.647,436.706 H120.471V45.176h150.588v127.997c0,12.475,10.114,22.588,22.588,22.588h128V436.706z"/> </g> </g> <g> <g> <path d="M353.882,346.353H188.235c-12.475,0-22.588,10.113-22.588,22.588s10.114,22.588,22.588,22.588h165.647 c12.475,0,22.588-10.114,22.588-22.588S366.357,346.353,353.882,346.353z"/> </g> </g> <g> <g> <path d="M353.882,256H188.235c-12.475,0-22.588,10.114-22.588,22.588s10.114,22.588,22.588,22.588h165.647 c12.475,0,22.588-10.113,22.588-22.588S366.357,256,353.882,256z"/> </g> </g> </g>
</svg>