<!DOCTYPE svg PUBLIC "-//W3C//DTD SVG 1.1//EN" "http://www.w3.org/Graphics/SVG/1.1/DTD/svg11.dtd">
<!-- Uploaded to: SVG Repo, www.svgrepo.com, Transformed by: SVG Repo Mixer Tools -->
<svg width="800px" height="800px" viewBox="0 0 24 24" fill="none" xmlns="http://www.w3.org/2000/svg" stroke="#f8cc30">
<g id="SVGRepo_bgCarrier" stroke-width="0"/>
<g id="SVGRepo_tracerCarrier" stroke-linecap="round" stroke-linejoin="round"/>
<g id="SVGRepo_iconCarrier"> <path d="M18 18.7083C17.4832 16.375 15.5357 15 12.0001 15C8.46459 15 6.51676 16.375 6 18.7083M12 21C16.9706 21 21 16.9706 21 12C21 7.02944 16.9706 3 12 3C7.02944 3 3 7.02944 3 12C3 16.9706 7.02944 21 12 21ZM12 12C13.3333 12 14 11.2857 14 9.5C14 7.71429 13.3333 7 12 7C10.6667 7 10 7.71429 10 9.5C10 11.2857 10.6667 12 12 12Z" stroke="#f8cc30" stroke-width="2" stroke-linecap="round" stroke-linejoin="round"/> </g>
</svg>